<svg id="Слой_1" data-name="Слой 1" xmlns="http://www.w3.org/2000/svg" xmlns:xlink="http://www.w3.org/1999/xlink" viewBox="0 0 275.43 390.07"><defs><style>.cls-1{fill:none;}.cls-2{clip-path:url(#clip-path);}.cls-3{fill:#2c4e79;}.cls-4{fill:#d0edf4;}</style><clipPath id="clip-path" transform="translate(-362 -305)"><rect class="cls-1" x="362" y="305" width="276" height="391"/></clipPath></defs><title>greography-globe</title><g class="cls-2"><path d="M440.89,485.59h0l0,0,0,0Zm0,0" transform="translate(-362 -305)"/><path class="cls-3" d="M618,656.29a19.39,19.39,0,1,1,0,38.78H513.82a19.39,19.39,0,0,1,0-38.78H553V621.1C472.3,635.7,391.78,587,368.45,506.59c-24.95-85.94,24.7-176.15,110.63-201.09a12.93,12.93,0,0,1,7.22,24.84c-72.26,21-114,96.79-93,169s96.84,114,169.05,93a12.93,12.93,0,0,1,16.53,12.42v51.48Z" transform="translate(-362 -305)"/><circle class="cls-3" cx="163" cy="154" r="97"/><path class="cls-4" d="M632.56,430a112.78,112.78,0,1,0-76.84,139.66A112.72,112.72,0,0,0,632.56,430Zm-143.39-26c1.87-15.72,7-24,11.16-25.22a5.51,5.51,0,0,1,1.58-.22c9.37,0,27,17.44,40.88,49.15a180.37,180.37,0,0,1-52.08,15.11c-2.17-14.12-2.88-27.59-1.54-38.83Zm-25.39-4.81c-.09.61-.21,1.14-.29,1.75-1.53,12.88-.93,27.61,1.25,43-12.09-.87-20.33-3.64-23.76-6.64a87.39,87.39,0,0,1,22.8-38.11Zm-22.85,86.51,0,0h0s0,0,0,0a86.71,86.71,0,0,1-3.28-20.94c9.16,3.51,20.23,5.27,32.39,5.4.58,2.22,1,4.41,1.63,6.63,2.18,7.5,4.84,15.09,7.84,22.54-16.2-.91-30.85-6.22-38.53-13.57Zm23.18,38a132.11,132.11,0,0,0,21.64,1.77c2,0,4.14-.18,6.2-.26a148.82,148.82,0,0,0,14.36,21,87.23,87.23,0,0,1-42.2-22.49Zm32.35-54.17c-.13-.43-.2-.85-.32-1.29A210.84,210.84,0,0,0,551.75,452c.13.43.29.8.41,1.24a212.72,212.72,0,0,1,6.41,29.6,180.93,180.93,0,0,1-51.52,15,207.42,207.42,0,0,1-10.61-28.42ZM548.28,544c-6,1.74-16.84-6.27-27.84-22.17,6.87-1.3,13.65-2.83,20-4.68s13.06-4.16,19.62-6.76c-.85,20-6.41,32-11.83,33.62Zm17.08-129.36c-6.44-14.18-14.24-27.45-23-38a87,87,0,0,1,39.43,20.06c-1.47,4.37-6.94,11-16.39,18ZM577,446.07c-.63-2.17-1.32-4.35-2-6.53C585,433,593.37,425.72,599.19,418a85.85,85.85,0,0,1,8.48,19c-2.29,10.43-11.73,22.7-25.19,32.34-1.44-7.76-3.26-15.55-5.48-23.23Zm23.41,57.16a86.94,86.94,0,0,1-15.36,20.27,146.71,146.71,0,0,0,.83-25.54,137.4,137.4,0,0,0,22.87-16.44,87.27,87.27,0,0,1-8.34,21.71Zm0,0" transform="translate(-362 -305)"/></g></svg>