<svg id="Слой_1" data-name="Слой 1" xmlns="http://www.w3.org/2000/svg" xmlns:xlink="http://www.w3.org/1999/xlink" viewBox="0 0 46.95 64.81"><defs><style>.cls-1{fill:none;}.cls-2{fill:#d0edf4;}.cls-3{clip-path:url(#clip-path);}.cls-4{fill:#2c4e79;}</style><clipPath id="clip-path" transform="translate(-476 -467.99)"><rect class="cls-1" x="476" y="468" width="46.8" height="64.99"/></clipPath></defs><title>business-person-silhouette-wearing-tie</title><rect class="cls-2" x="12.17" y="29.51" width="23.33" height="31.67" rx="11.67" ry="11.67"/><g class="cls-3"><path class="cls-4" d="M513.25,481.76A13.77,13.77,0,1,1,499.48,468a13.77,13.77,0,0,1,13.77,13.77Zm0,0" transform="translate(-476 -467.99)"/><path class="cls-4" d="M505.32,496.47H493.63A17.65,17.65,0,0,0,476,514.11V528.4l0,.22,1,.31a80.3,80.3,0,0,0,24,3.87c13,0,20.47-3.7,20.94-3.93l.92-.47h.1V514.11a17.65,17.65,0,0,0-17.63-17.64Zm-3.12,27.74-2.52,3.69a.17.17,0,0,1-.15.08h0a.18.18,0,0,1-.15-.08l-2.34-3.7a.2.2,0,0,1,0-.11l1.17-17.93a.18.18,0,0,1,.18-.16h2.43a.18.18,0,0,1,.18.16l1.26,17.92a.18.18,0,0,1,0,.12Zm-1.14-18.75h-2.89l-2.51-5.2a.9.9,0,0,1,.9-.9h6a.9.9,0,0,1,.9.9Zm0,0" transform="translate(-476 -467.99)"/></g></svg>