<svg id="Слой_1" data-name="Слой 1" xmlns="http://www.w3.org/2000/svg" xmlns:xlink="http://www.w3.org/1999/xlink" viewBox="0 0 48 46.4"><defs><style>.cls-1{fill:none;}.cls-2{fill:#2c4e79;}.cls-3{clip-path:url(#clip-path);}.cls-4{fill:#d0edf4;}</style><clipPath id="clip-path" transform="translate(-476 -477.4)"><rect class="cls-1" x="476" y="477" width="48" height="47.76"/></clipPath></defs><title>chat-1</title><ellipse class="cls-2" cx="21" cy="26.23" rx="15.38" ry="8.5"/><g class="cls-3"><path class="cls-2" d="M520.71,506.23a17.31,17.31,0,0,0,3.29-10.1c0-10.33-9.33-18.73-20.8-18.73a21.78,21.78,0,0,0-16.66,7.54,24.12,24.12,0,0,1,10.26-2.26c12.35,0,22.4,9.12,22.4,20.33A19,19,0,0,1,515,514.81a41.66,41.66,0,0,0,8.08,2.11h.11a.8.8,0,0,0,.57-1.36c-1.56-1.57-2.65-4.88-3.05-9.34Zm0,0" transform="translate(-476 -477.4)"/><path class="cls-4" d="M496.8,484.27c-11.47,0-20.8,8.41-20.8,18.74a17.32,17.32,0,0,0,3.28,10.1c-.41,4.46-1.49,7.77-3.05,9.33a.8.8,0,0,0,.57,1.36h.11c.28,0,6.75-1,11.45-3.67a22.6,22.6,0,0,0,8.44,1.61c11.47,0,20.8-8.4,20.8-18.73s-9.33-18.74-20.8-18.74ZM486.4,506.2a3.2,3.2,0,1,1,3.2-3.2,3.21,3.21,0,0,1-3.2,3.2Zm10.4,0A3.2,3.2,0,1,1,500,503a3.2,3.2,0,0,1-3.2,3.2Zm10.4,0a3.2,3.2,0,1,1,3.2-3.2,3.2,3.2,0,0,1-3.2,3.2Zm0,0" transform="translate(-476 -477.4)"/></g></svg>