<svg id="Слой_1" data-name="Слой 1" xmlns="http://www.w3.org/2000/svg" viewBox="0 0 77.91 66.43"><defs><style>.cls-1{fill:#d0edf4;}.cls-2{fill:#2c4e79;}</style></defs><title>library</title><rect class="cls-1" x="16.8" y="14.31" width="18.2" height="51.8"/><rect class="cls-1" x="39.2" y="7.31" width="14" height="58.8"/><rect class="cls-1" y="0.31" width="14" height="65.8"/><rect class="cls-1" x="522.05" y="476.72" width="9.8" height="58.8" transform="translate(-550.71 -353.26) rotate(-11.59)"/><path class="cls-2" d="M459.75,469.79h14v7h-14Zm0,9.8h14v47.6h-14Zm2.57,38.79a4.38,4.38,0,1,0,4.38-4.37,4.37,4.37,0,0,0-4.37,4.38Zm-2.57,17.21h14V530h-14Zm16.8-6.58v6.58h18.2V529c-.74-.53-3.05-1.78-8.4-1.78a23.65,23.65,0,0,0-9.8,1.82Zm0-40.27a23.64,23.64,0,0,0,9.8,1.82c5.31,0,7.63-1.24,8.4-1.8v-5h-18.2Zm0,3V526a27.94,27.94,0,0,1,9.8-1.59,21,21,0,0,1,8.4,1.41V491.95a21,21,0,0,1-8.4,1.41,28,28,0,0,1-9.8-1.59Zm47.89-22.29-9.6,2,.89,4.33.52,2.52,9.6-2ZM536,525.71l-9.6,2-9.57-46.63,9.6-2Zm-3.33-8.31c-.49-2.37-2.38-4-4.22-3.6s-2.95,2.61-2.46,5,2.38,4,4.22,3.6,2.95-2.6,2.46-5Zm3.89,11-9.6,2,1.12,5.48,9.6-2Zm-37.59-51.66h14v-7h-14Zm0,58.8h14V530h-14Zm0-15.4h14v-33.6h-14Zm0,7h14V523h-14Zm0-43.4h14v-4.2h-14Zm0,0" transform="translate(-459.75 -469.48)"/><path class="cls-1" d="M543.92,473.15" transform="translate(-459.75 -469.48)"/><path class="cls-1" d="M537.66,467.31" transform="translate(-459.75 -469.48)"/></svg>